<?xml version="1.0" standalone="no"?>
<!DOCTYPE svg PUBLIC "-//W3C//DTD SVG 20010904//EN"
 "http://www.w3.org/TR/2001/REC-SVG-20010904/DTD/svg10.dtd">
<svg version="1.0" xmlns="http://www.w3.org/2000/svg"
 width="1025.000000pt" height="1025.000000pt" viewBox="0 0 1025.000000 1025.000000"
 preserveAspectRatio="xMidYMid meet">
<metadata>
Created by potrace 1.14, written by Peter Selinger 2001-2017
</metadata>
<g transform="translate(0.000000,1025.000000) scale(0.100000,-0.100000)"
fill="#000000" stroke="none">
<path d="M1489 10246 c-2 -2 -31 -7 -64 -11 -219 -24 -466 -115 -675 -249 -76
-48 -74 -47 -164 -122 -248 -206 -430 -485 -520 -795 -13 -47 -27 -100 -31
-119 -35 -190 -34 -110 -31 -3855 1 -2002 6 -3658 10 -3680 69 -384 231 -697
491 -948 114 -111 308 -245 433 -299 26 -11 65 -28 87 -38 48 -21 186 -66 235
-76 19 -4 42 -9 50 -11 148 -32 144 -32 3845 -30 2002 1 3654 6 3670 10 17 4
44 9 60 12 334 56 654 227 896 480 245 255 390 554 444 920 11 74 13 721 12
3740 l-2 3650 -23 100 c-59 253 -166 495 -294 660 -78 101 -160 190 -239 261
-43 38 -186 144 -194 144 -4 0 -21 11 -38 24 -45 33 -206 109 -311 146 -81 28
-194 57 -301 76 -40 8 -7338 17 -7346 10z"/>
</g>
</svg>
